<mxfile host="drawio.newtoat.net" agent="Mozilla/5.0 (Macintosh; Intel Mac OS X 10_15_7) AppleWebKit/605.1.15 (KHTML, like Gecko) Version/18.3.1 Safari/605.1.15" version="26.1.0">
  <diagram name="Page-1" id="xfU9pE6r9b9aJv9ZdJgF">
    <mxGraphModel dx="1227" dy="726" grid="1" gridSize="10" guides="1" tooltips="1" connect="1" arrows="1" fold="1" page="1" pageScale="1" pageWidth="827" pageHeight="1169" math="0" shadow="0">
      <root>
        <mxCell id="0" />
        <mxCell id="1" parent="0" />
        <mxCell id="U8OfBwTo37hnceXYN2hP-30" value="" style="rounded=0;whiteSpace=wrap;html=1;sketch=1;hachureGap=4;jiggle=2;curveFitting=1;fontFamily=Architects Daughter;fontSource=https%3A%2F%2Ffonts.googleapis.com%2Fcss%3Ffamily%3DArchitects%2BDaughter;fillColor=#E6E6E6;fillStyle=auto;strokeColor=default;" parent="1" vertex="1">
          <mxGeometry x="220" y="400" width="850" height="590" as="geometry" />
        </mxCell>
        <mxCell id="U8OfBwTo37hnceXYN2hP-28" value="" style="rounded=0;whiteSpace=wrap;html=1;sketch=1;hachureGap=4;jiggle=2;curveFitting=1;fontFamily=Architects Daughter;fontSource=https%3A%2F%2Ffonts.googleapis.com%2Fcss%3Ffamily%3DArchitects%2BDaughter;fillColor=#E6E6E6;" parent="1" vertex="1">
          <mxGeometry x="330" y="110" width="290" height="150" as="geometry" />
        </mxCell>
        <mxCell id="U8OfBwTo37hnceXYN2hP-2" value="&lt;font style=&quot;font-size: 24px;&quot;&gt;proxmid-1&lt;/font&gt;&lt;div&gt;&lt;font size=&quot;3&quot;&gt;&lt;br&gt;&lt;/font&gt;&lt;/div&gt;&lt;div&gt;&lt;font size=&quot;3&quot;&gt;&lt;br&gt;&lt;/font&gt;&lt;/div&gt;&lt;div&gt;&lt;font size=&quot;3&quot;&gt;&lt;br&gt;&lt;/font&gt;&lt;/div&gt;&lt;div&gt;&lt;font size=&quot;3&quot;&gt;&lt;br&gt;&lt;/font&gt;&lt;/div&gt;&lt;div&gt;&lt;font size=&quot;3&quot;&gt;&lt;br&gt;&lt;/font&gt;&lt;/div&gt;&lt;div&gt;&lt;font size=&quot;3&quot;&gt;&lt;br&gt;&lt;/font&gt;&lt;/div&gt;&lt;div&gt;&lt;font size=&quot;3&quot;&gt;&lt;br&gt;&lt;/font&gt;&lt;/div&gt;&lt;div&gt;&lt;font style=&quot;font-size: 18px;&quot;&gt;&lt;br&gt;&lt;/font&gt;&lt;/div&gt;" style="rounded=0;whiteSpace=wrap;html=1;sketch=1;hachureGap=4;jiggle=2;curveFitting=1;fontFamily=Architects Daughter;fontSource=https%3A%2F%2Ffonts.googleapis.com%2Fcss%3Ffamily%3DArchitects%2BDaughter;glass=0;" parent="1" vertex="1">
          <mxGeometry x="300" y="650" width="120" height="220" as="geometry" />
        </mxCell>
        <mxCell id="U8OfBwTo37hnceXYN2hP-4" value="&lt;font style=&quot;font-size: 24px;&quot;&gt;proxmid-3&lt;/font&gt;&lt;div&gt;&lt;font size=&quot;3&quot;&gt;&lt;br&gt;&lt;/font&gt;&lt;/div&gt;&lt;div&gt;&lt;font size=&quot;3&quot;&gt;&lt;br&gt;&lt;/font&gt;&lt;/div&gt;&lt;div&gt;&lt;font size=&quot;3&quot;&gt;&lt;br&gt;&lt;/font&gt;&lt;/div&gt;&lt;div&gt;&lt;font size=&quot;3&quot;&gt;&lt;br&gt;&lt;/font&gt;&lt;/div&gt;&lt;div&gt;&lt;font size=&quot;3&quot;&gt;&lt;br&gt;&lt;/font&gt;&lt;/div&gt;&lt;div&gt;&lt;font size=&quot;3&quot;&gt;&lt;br&gt;&lt;/font&gt;&lt;/div&gt;&lt;div&gt;&lt;font size=&quot;3&quot;&gt;&lt;br&gt;&lt;/font&gt;&lt;/div&gt;&lt;div&gt;&lt;font style=&quot;font-size: 18px;&quot;&gt;&lt;br&gt;&lt;/font&gt;&lt;/div&gt;" style="rounded=0;whiteSpace=wrap;html=1;sketch=1;hachureGap=4;jiggle=2;curveFitting=1;fontFamily=Architects Daughter;fontSource=https%3A%2F%2Ffonts.googleapis.com%2Fcss%3Ffamily%3DArchitects%2BDaughter;" parent="1" vertex="1">
          <mxGeometry x="700" y="650" width="120" height="220" as="geometry" />
        </mxCell>
        <mxCell id="U8OfBwTo37hnceXYN2hP-5" value="&lt;font style=&quot;font-size: 24px;&quot;&gt;proxmid-2&lt;/font&gt;&lt;div&gt;&lt;font size=&quot;3&quot;&gt;&lt;br&gt;&lt;/font&gt;&lt;/div&gt;&lt;div&gt;&lt;font size=&quot;3&quot;&gt;&lt;br&gt;&lt;/font&gt;&lt;/div&gt;&lt;div&gt;&lt;font size=&quot;3&quot;&gt;&lt;br&gt;&lt;/font&gt;&lt;/div&gt;&lt;div&gt;&lt;font size=&quot;3&quot;&gt;&lt;br&gt;&lt;/font&gt;&lt;/div&gt;&lt;div&gt;&lt;font size=&quot;3&quot;&gt;&lt;br&gt;&lt;/font&gt;&lt;/div&gt;&lt;div&gt;&lt;font size=&quot;3&quot;&gt;&lt;br&gt;&lt;/font&gt;&lt;/div&gt;&lt;div&gt;&lt;font size=&quot;3&quot;&gt;&lt;br&gt;&lt;/font&gt;&lt;/div&gt;&lt;div&gt;&lt;font style=&quot;font-size: 18px;&quot;&gt;&lt;br&gt;&lt;/font&gt;&lt;/div&gt;" style="rounded=0;whiteSpace=wrap;html=1;sketch=1;hachureGap=4;jiggle=2;curveFitting=1;fontFamily=Architects Daughter;fontSource=https%3A%2F%2Ffonts.googleapis.com%2Fcss%3Ffamily%3DArchitects%2BDaughter;" parent="1" vertex="1">
          <mxGeometry x="500" y="650" width="120" height="220" as="geometry" />
        </mxCell>
        <mxCell id="U8OfBwTo37hnceXYN2hP-8" style="edgeStyle=orthogonalEdgeStyle;rounded=0;sketch=1;hachureGap=4;jiggle=2;curveFitting=1;orthogonalLoop=1;jettySize=auto;html=1;fontFamily=Architects Daughter;fontSource=https%3A%2F%2Ffonts.googleapis.com%2Fcss%3Ffamily%3DArchitects%2BDaughter;startArrow=none;startFill=0;endArrow=none;" parent="1" source="U8OfBwTo37hnceXYN2hP-6" target="U8OfBwTo37hnceXYN2hP-5" edge="1">
          <mxGeometry relative="1" as="geometry" />
        </mxCell>
        <mxCell id="U8OfBwTo37hnceXYN2hP-9" style="edgeStyle=orthogonalEdgeStyle;rounded=0;sketch=1;hachureGap=4;jiggle=2;curveFitting=1;orthogonalLoop=1;jettySize=auto;html=1;fontFamily=Architects Daughter;fontSource=https%3A%2F%2Ffonts.googleapis.com%2Fcss%3Ffamily%3DArchitects%2BDaughter;endArrow=none;startFill=0;" parent="1" source="U8OfBwTo37hnceXYN2hP-6" target="U8OfBwTo37hnceXYN2hP-2" edge="1">
          <mxGeometry relative="1" as="geometry">
            <Array as="points">
              <mxPoint x="360" y="590" />
            </Array>
          </mxGeometry>
        </mxCell>
        <mxCell id="U8OfBwTo37hnceXYN2hP-21" style="edgeStyle=orthogonalEdgeStyle;rounded=0;sketch=1;hachureGap=4;jiggle=2;curveFitting=1;orthogonalLoop=1;jettySize=auto;html=1;fontFamily=Architects Daughter;fontSource=https%3A%2F%2Ffonts.googleapis.com%2Fcss%3Ffamily%3DArchitects%2BDaughter;startArrow=none;startFill=0;endArrow=none;" parent="1" source="U8OfBwTo37hnceXYN2hP-6" target="U8OfBwTo37hnceXYN2hP-19" edge="1">
          <mxGeometry relative="1" as="geometry">
            <Array as="points">
              <mxPoint x="960" y="570" />
            </Array>
          </mxGeometry>
        </mxCell>
        <mxCell id="U8OfBwTo37hnceXYN2hP-6" value="&lt;font style=&quot;font-size: 24px;&quot;&gt;Switch&lt;/font&gt;&lt;div&gt;&lt;font style=&quot;font-size: 12px;&quot;&gt;(Regular network)&lt;/font&gt;&lt;/div&gt;" style="rounded=1;whiteSpace=wrap;html=1;sketch=1;hachureGap=4;jiggle=2;curveFitting=1;fontFamily=Architects Daughter;fontSource=https%3A%2F%2Ffonts.googleapis.com%2Fcss%3Ffamily%3DArchitects%2BDaughter;" parent="1" vertex="1">
          <mxGeometry x="500" y="550" width="120" height="60" as="geometry" />
        </mxCell>
        <mxCell id="U8OfBwTo37hnceXYN2hP-11" style="edgeStyle=orthogonalEdgeStyle;rounded=0;sketch=1;hachureGap=4;jiggle=2;curveFitting=1;orthogonalLoop=1;jettySize=auto;html=1;fontFamily=Architects Daughter;fontSource=https%3A%2F%2Ffonts.googleapis.com%2Fcss%3Ffamily%3DArchitects%2BDaughter;endArrow=none;startFill=0;" parent="1" source="U8OfBwTo37hnceXYN2hP-7" target="U8OfBwTo37hnceXYN2hP-2" edge="1">
          <mxGeometry relative="1" as="geometry" />
        </mxCell>
        <mxCell id="U8OfBwTo37hnceXYN2hP-12" style="edgeStyle=orthogonalEdgeStyle;rounded=0;sketch=1;hachureGap=4;jiggle=2;curveFitting=1;orthogonalLoop=1;jettySize=auto;html=1;fontFamily=Architects Daughter;fontSource=https%3A%2F%2Ffonts.googleapis.com%2Fcss%3Ffamily%3DArchitects%2BDaughter;endArrow=none;startFill=0;" parent="1" source="U8OfBwTo37hnceXYN2hP-7" target="U8OfBwTo37hnceXYN2hP-5" edge="1">
          <mxGeometry relative="1" as="geometry" />
        </mxCell>
        <mxCell id="U8OfBwTo37hnceXYN2hP-13" style="edgeStyle=orthogonalEdgeStyle;rounded=0;sketch=1;hachureGap=4;jiggle=2;curveFitting=1;orthogonalLoop=1;jettySize=auto;html=1;fontFamily=Architects Daughter;fontSource=https%3A%2F%2Ffonts.googleapis.com%2Fcss%3Ffamily%3DArchitects%2BDaughter;endArrow=none;startFill=0;" parent="1" source="U8OfBwTo37hnceXYN2hP-7" target="U8OfBwTo37hnceXYN2hP-4" edge="1">
          <mxGeometry relative="1" as="geometry" />
        </mxCell>
        <mxCell id="U8OfBwTo37hnceXYN2hP-7" value="&lt;font style=&quot;font-size: 24px;&quot;&gt;Switch&lt;/font&gt;&lt;div&gt;(Cluster network)&lt;/div&gt;" style="rounded=1;whiteSpace=wrap;html=1;sketch=1;hachureGap=4;jiggle=2;curveFitting=1;fontFamily=Architects Daughter;fontSource=https%3A%2F%2Ffonts.googleapis.com%2Fcss%3Ffamily%3DArchitects%2BDaughter;" parent="1" vertex="1">
          <mxGeometry x="500" y="910" width="120" height="60" as="geometry" />
        </mxCell>
        <mxCell id="U8OfBwTo37hnceXYN2hP-10" style="edgeStyle=orthogonalEdgeStyle;rounded=0;sketch=1;hachureGap=4;jiggle=2;curveFitting=1;orthogonalLoop=1;jettySize=auto;html=1;entryX=0.358;entryY=0.042;entryDx=0;entryDy=0;entryPerimeter=0;fontFamily=Architects Daughter;fontSource=https%3A%2F%2Ffonts.googleapis.com%2Fcss%3Ffamily%3DArchitects%2BDaughter;startArrow=none;startFill=0;endArrow=none;" parent="1" source="U8OfBwTo37hnceXYN2hP-6" target="U8OfBwTo37hnceXYN2hP-4" edge="1">
          <mxGeometry relative="1" as="geometry">
            <Array as="points">
              <mxPoint x="743" y="590" />
            </Array>
          </mxGeometry>
        </mxCell>
        <mxCell id="U8OfBwTo37hnceXYN2hP-15" style="edgeStyle=orthogonalEdgeStyle;rounded=0;sketch=1;hachureGap=4;jiggle=2;curveFitting=1;orthogonalLoop=1;jettySize=auto;html=1;fontFamily=Architects Daughter;fontSource=https%3A%2F%2Ffonts.googleapis.com%2Fcss%3Ffamily%3DArchitects%2BDaughter;endArrow=none;startFill=0;" parent="1" source="U8OfBwTo37hnceXYN2hP-14" target="U8OfBwTo37hnceXYN2hP-6" edge="1">
          <mxGeometry relative="1" as="geometry" />
        </mxCell>
        <mxCell id="U8OfBwTo37hnceXYN2hP-14" value="&lt;div&gt;&lt;font style=&quot;font-size: 18px;&quot;&gt;Mesh&lt;/font&gt;&lt;/div&gt;&lt;div&gt;&lt;font size=&quot;3&quot;&gt;AP&lt;/font&gt;&lt;/div&gt;" style="shape=cylinder3;whiteSpace=wrap;html=1;boundedLbl=1;backgroundOutline=1;size=15;sketch=1;hachureGap=4;jiggle=2;curveFitting=1;fontFamily=Architects Daughter;fontSource=https%3A%2F%2Ffonts.googleapis.com%2Fcss%3Ffamily%3DArchitects%2BDaughter;" parent="1" vertex="1">
          <mxGeometry x="530" y="430" width="60" height="80" as="geometry" />
        </mxCell>
        <mxCell id="U8OfBwTo37hnceXYN2hP-16" value="" style="rounded=0;whiteSpace=wrap;html=1;sketch=1;hachureGap=4;jiggle=2;curveFitting=1;fontFamily=Architects Daughter;fontSource=https%3A%2F%2Ffonts.googleapis.com%2Fcss%3Ffamily%3DArchitects%2BDaughter;fillColor=#f8cecc;strokeColor=#b85450;" parent="1" vertex="1">
          <mxGeometry x="280" y="810" width="560" height="40" as="geometry" />
        </mxCell>
        <mxCell id="U8OfBwTo37hnceXYN2hP-18" value="&lt;span style=&quot;caret-color: rgba(0, 0, 0, 0); color: rgba(0, 0, 0, 0); font-family: monospace; font-size: 0px; text-align: start; white-space: nowrap;&quot;&gt;%3CmxGraphModel%3E%3Croot%3E%3CmxCell%20id%3D%220%22%2F%3E%3CmxCell%20id%3D%221%22%20parent%3D%220%22%2F%3E%3CmxCell%20id%3D%222%22%20value%3D%22%26lt%3Bfont%20style%3D%26quot%3Bfont-size%3A%2018px%3B%26quot%3B%26gt%3BCeph%26lt%3B%2Ffont%26gt%3B%22%20style%3D%22text%3Bhtml%3D1%3Balign%3Dcenter%3BverticalAlign%3Dmiddle%3BwhiteSpace%3Dwrap%3Brounded%3D0%3BfontFamily%3DArchitects%20Daughter%3BfontSource%3Dhttps%253A%252F%252Ffonts.googleapis.com%252Fcss%253Ffamily%253DArchitects%252BDaughter%3B%22%20vertex%3D%221%22%20parent%3D%221%22%3E%3CmxGeometry%20x%3D%22450%22%20y%3D%22815%22%20width%3D%2260%22%20height%3D%2230%22%20as%3D%22geometry%22%2F%3E%3C%2FmxCell%3E%3C%2Froot%3E%3C%2FmxGraphModel%3E&lt;/span&gt;" style="rounded=0;whiteSpace=wrap;html=1;sketch=1;hachureGap=4;jiggle=2;curveFitting=1;fontFamily=Architects Daughter;fontSource=https%3A%2F%2Ffonts.googleapis.com%2Fcss%3Ffamily%3DArchitects%2BDaughter;fillColor=#ffe6cc;strokeColor=#d79b00;" parent="1" vertex="1">
          <mxGeometry x="280" y="760" width="560" height="40" as="geometry" />
        </mxCell>
        <mxCell id="U8OfBwTo37hnceXYN2hP-19" value="&lt;div&gt;&lt;font style=&quot;font-size: 24px;&quot;&gt;TrueNAS&lt;/font&gt;&lt;/div&gt;" style="rounded=0;whiteSpace=wrap;html=1;sketch=1;hachureGap=4;jiggle=2;curveFitting=1;fontFamily=Architects Daughter;fontSource=https%3A%2F%2Ffonts.googleapis.com%2Fcss%3Ffamily%3DArchitects%2BDaughter;" parent="1" vertex="1">
          <mxGeometry x="900" y="650" width="120" height="160" as="geometry" />
        </mxCell>
        <mxCell id="U8OfBwTo37hnceXYN2hP-22" value="&lt;font style=&quot;font-size: 18px;&quot;&gt;Mesh AP&lt;/font&gt;" style="shape=cylinder3;whiteSpace=wrap;html=1;boundedLbl=1;backgroundOutline=1;size=15;sketch=1;hachureGap=4;jiggle=2;curveFitting=1;fontFamily=Architects Daughter;fontSource=https%3A%2F%2Ffonts.googleapis.com%2Fcss%3Ffamily%3DArchitects%2BDaughter;" parent="1" vertex="1">
          <mxGeometry x="530" y="160" width="60" height="80" as="geometry" />
        </mxCell>
        <mxCell id="U8OfBwTo37hnceXYN2hP-24" style="edgeStyle=orthogonalEdgeStyle;rounded=0;sketch=1;hachureGap=4;jiggle=2;curveFitting=1;orthogonalLoop=1;jettySize=auto;html=1;fontFamily=Architects Daughter;fontSource=https%3A%2F%2Ffonts.googleapis.com%2Fcss%3Ffamily%3DArchitects%2BDaughter;endArrow=none;startFill=0;" parent="1" source="U8OfBwTo37hnceXYN2hP-26" target="U8OfBwTo37hnceXYN2hP-22" edge="1">
          <mxGeometry relative="1" as="geometry" />
        </mxCell>
        <mxCell id="U8OfBwTo37hnceXYN2hP-23" value="" style="ellipse;shape=cloud;whiteSpace=wrap;html=1;sketch=1;hachureGap=4;jiggle=2;curveFitting=1;fontFamily=Architects Daughter;fontSource=https%3A%2F%2Ffonts.googleapis.com%2Fcss%3Ffamily%3DArchitects%2BDaughter;" parent="1" vertex="1">
          <mxGeometry x="50" y="150" width="175" height="100" as="geometry" />
        </mxCell>
        <mxCell id="U8OfBwTo37hnceXYN2hP-25" style="edgeStyle=orthogonalEdgeStyle;rounded=0;sketch=1;hachureGap=4;jiggle=2;curveFitting=1;orthogonalLoop=1;jettySize=auto;html=1;entryX=0.5;entryY=0;entryDx=0;entryDy=0;entryPerimeter=0;fontFamily=Architects Daughter;fontSource=https%3A%2F%2Ffonts.googleapis.com%2Fcss%3Ffamily%3DArchitects%2BDaughter;curved=0;shape=link;exitX=0.5;exitY=1;exitDx=0;exitDy=0;exitPerimeter=0;endArrow=none;startFill=0;width=16;" parent="1" source="1xIR8QWK2N-v2XUJRnLr-8" edge="1">
          <mxGeometry relative="1" as="geometry">
            <mxPoint x="559" y="240" as="sourcePoint" />
            <mxPoint x="559" y="430" as="targetPoint" />
          </mxGeometry>
        </mxCell>
        <mxCell id="U8OfBwTo37hnceXYN2hP-27" value="" style="edgeStyle=orthogonalEdgeStyle;rounded=0;sketch=1;hachureGap=4;jiggle=2;curveFitting=1;orthogonalLoop=1;jettySize=auto;html=1;fontFamily=Architects Daughter;fontSource=https%3A%2F%2Ffonts.googleapis.com%2Fcss%3Ffamily%3DArchitects%2BDaughter;shape=link;exitX=0.875;exitY=0.5;exitDx=0;exitDy=0;exitPerimeter=0;" parent="1" source="U8OfBwTo37hnceXYN2hP-23" target="U8OfBwTo37hnceXYN2hP-26" edge="1">
          <mxGeometry relative="1" as="geometry">
            <mxPoint x="295" y="190" as="sourcePoint" />
            <mxPoint x="575" y="190" as="targetPoint" />
          </mxGeometry>
        </mxCell>
        <mxCell id="1xIR8QWK2N-v2XUJRnLr-1" value="&lt;font style=&quot;font-size: 14px;&quot;&gt;400Mbps&lt;/font&gt;" style="edgeLabel;html=1;align=center;verticalAlign=middle;resizable=0;points=[];sketch=1;hachureGap=4;jiggle=2;curveFitting=1;fontFamily=Architects Daughter;fontSource=https%3A%2F%2Ffonts.googleapis.com%2Fcss%3Ffamily%3DArchitects%2BDaughter;" vertex="1" connectable="0" parent="U8OfBwTo37hnceXYN2hP-27">
          <mxGeometry x="-0.1506" y="6" relative="1" as="geometry">
            <mxPoint x="-4" y="-14" as="offset" />
          </mxGeometry>
        </mxCell>
        <mxCell id="U8OfBwTo37hnceXYN2hP-26" value="&lt;font style=&quot;font-size: 18px;&quot;&gt;Virgin Media Router&lt;/font&gt;" style="rounded=0;whiteSpace=wrap;html=1;sketch=1;hachureGap=4;jiggle=2;curveFitting=1;fontFamily=Architects Daughter;fontSource=https%3A%2F%2Ffonts.googleapis.com%2Fcss%3Ffamily%3DArchitects%2BDaughter;" parent="1" vertex="1">
          <mxGeometry x="370" y="170" width="120" height="60" as="geometry" />
        </mxCell>
        <mxCell id="U8OfBwTo37hnceXYN2hP-29" value="&lt;font style=&quot;font-size: 36px;&quot;&gt;Living Room&lt;/font&gt;" style="text;html=1;align=center;verticalAlign=middle;whiteSpace=wrap;rounded=0;fontFamily=Architects Daughter;fontSource=https%3A%2F%2Ffonts.googleapis.com%2Fcss%3Ffamily%3DArchitects%2BDaughter;" parent="1" vertex="1">
          <mxGeometry x="330" y="125" width="230" height="30" as="geometry" />
        </mxCell>
        <mxCell id="U8OfBwTo37hnceXYN2hP-31" value="&lt;font style=&quot;font-size: 36px;&quot;&gt;Office&lt;/font&gt;" style="text;html=1;align=center;verticalAlign=middle;whiteSpace=wrap;rounded=0;fontFamily=Architects Daughter;fontSource=https%3A%2F%2Ffonts.googleapis.com%2Fcss%3Ffamily%3DArchitects%2BDaughter;" parent="1" vertex="1">
          <mxGeometry x="270" y="430" width="60" height="30" as="geometry" />
        </mxCell>
        <mxCell id="U8OfBwTo37hnceXYN2hP-32" value="" style="rounded=0;whiteSpace=wrap;html=1;sketch=1;hachureGap=4;jiggle=2;curveFitting=1;fontFamily=Architects Daughter;fontSource=https%3A%2F%2Ffonts.googleapis.com%2Fcss%3Ffamily%3DArchitects%2BDaughter;fillColor=#f5f5f5;strokeColor=#666666;fontColor=#333333;" parent="1" vertex="1">
          <mxGeometry x="780" y="210" width="290" height="150" as="geometry" />
        </mxCell>
        <mxCell id="U8OfBwTo37hnceXYN2hP-43" style="edgeStyle=orthogonalEdgeStyle;rounded=0;sketch=1;hachureGap=4;jiggle=2;curveFitting=1;orthogonalLoop=1;jettySize=auto;html=1;fontFamily=Architects Daughter;fontSource=https%3A%2F%2Ffonts.googleapis.com%2Fcss%3Ffamily%3DArchitects%2BDaughter;endArrow=none;startFill=0;" parent="1" source="U8OfBwTo37hnceXYN2hP-33" target="U8OfBwTo37hnceXYN2hP-35" edge="1">
          <mxGeometry relative="1" as="geometry" />
        </mxCell>
        <mxCell id="U8OfBwTo37hnceXYN2hP-33" value="&lt;font style=&quot;font-size: 18px;&quot;&gt;Mesh AP&lt;/font&gt;" style="shape=cylinder3;whiteSpace=wrap;html=1;boundedLbl=1;backgroundOutline=1;size=15;sketch=1;hachureGap=4;jiggle=2;curveFitting=1;fontFamily=Architects Daughter;fontSource=https%3A%2F%2Ffonts.googleapis.com%2Fcss%3Ffamily%3DArchitects%2BDaughter;" parent="1" vertex="1">
          <mxGeometry x="820" y="260" width="60" height="80" as="geometry" />
        </mxCell>
        <mxCell id="U8OfBwTo37hnceXYN2hP-34" value="&lt;font style=&quot;font-size: 36px;&quot;&gt;Hallway&lt;/font&gt;" style="text;html=1;align=center;verticalAlign=middle;whiteSpace=wrap;rounded=0;fontFamily=Architects Daughter;fontSource=https%3A%2F%2Ffonts.googleapis.com%2Fcss%3Ffamily%3DArchitects%2BDaughter;" parent="1" vertex="1">
          <mxGeometry x="970" y="220" width="60" height="30" as="geometry" />
        </mxCell>
        <mxCell id="U8OfBwTo37hnceXYN2hP-35" value="&lt;font style=&quot;font-size: 18px;&quot;&gt;CCTV Cameras&lt;/font&gt;" style="rounded=0;whiteSpace=wrap;html=1;sketch=1;hachureGap=4;jiggle=2;curveFitting=1;fontFamily=Architects Daughter;fontSource=https%3A%2F%2Ffonts.googleapis.com%2Fcss%3Ffamily%3DArchitects%2BDaughter;" parent="1" vertex="1">
          <mxGeometry x="920" y="265" width="120" height="70" as="geometry" />
        </mxCell>
        <mxCell id="U8OfBwTo37hnceXYN2hP-36" value="" style="rounded=0;whiteSpace=wrap;html=1;sketch=1;hachureGap=4;jiggle=2;curveFitting=1;fontFamily=Architects Daughter;fontSource=https%3A%2F%2Ffonts.googleapis.com%2Fcss%3Ffamily%3DArchitects%2BDaughter;fillColor=#f5f5f5;strokeColor=#666666;fontColor=#333333;" parent="1" vertex="1">
          <mxGeometry x="780" y="40" width="290" height="150" as="geometry" />
        </mxCell>
        <mxCell id="U8OfBwTo37hnceXYN2hP-37" value="&lt;font style=&quot;font-size: 18px;&quot;&gt;Mesh AP&lt;/font&gt;" style="shape=cylinder3;whiteSpace=wrap;html=1;boundedLbl=1;backgroundOutline=1;size=15;sketch=1;hachureGap=4;jiggle=2;curveFitting=1;fontFamily=Architects Daughter;fontSource=https%3A%2F%2Ffonts.googleapis.com%2Fcss%3Ffamily%3DArchitects%2BDaughter;" parent="1" vertex="1">
          <mxGeometry x="820" y="90" width="60" height="80" as="geometry" />
        </mxCell>
        <mxCell id="U8OfBwTo37hnceXYN2hP-38" value="&lt;font style=&quot;font-size: 36px;&quot;&gt;Basement&lt;/font&gt;" style="text;html=1;align=center;verticalAlign=middle;whiteSpace=wrap;rounded=0;fontFamily=Architects Daughter;fontSource=https%3A%2F%2Ffonts.googleapis.com%2Fcss%3Ffamily%3DArchitects%2BDaughter;" parent="1" vertex="1">
          <mxGeometry x="950" y="50" width="60" height="30" as="geometry" />
        </mxCell>
        <mxCell id="U8OfBwTo37hnceXYN2hP-44" value="" style="rounded=0;whiteSpace=wrap;html=1;sketch=1;hachureGap=4;jiggle=2;curveFitting=1;fontFamily=Architects Daughter;fontSource=https%3A%2F%2Ffonts.googleapis.com%2Fcss%3Ffamily%3DArchitects%2BDaughter;fillColor=#dae8fc;strokeColor=#6c8ebf;" parent="1" vertex="1">
          <mxGeometry x="280" y="710" width="560" height="40" as="geometry" />
        </mxCell>
        <mxCell id="TelUifXL3P2J1JTy18Ay-1" value="&lt;font style=&quot;font-size: 18px;&quot;&gt;Ceph&lt;/font&gt;" style="text;html=1;align=center;verticalAlign=middle;whiteSpace=wrap;rounded=0;fontFamily=Architects Daughter;fontSource=https%3A%2F%2Ffonts.googleapis.com%2Fcss%3Ffamily%3DArchitects%2BDaughter;" parent="1" vertex="1">
          <mxGeometry x="530" y="815" width="60" height="30" as="geometry" />
        </mxCell>
        <mxCell id="TelUifXL3P2J1JTy18Ay-2" value="&lt;font style=&quot;font-size: 18px;&quot;&gt;Ceph&lt;/font&gt;" style="text;html=1;align=center;verticalAlign=middle;whiteSpace=wrap;rounded=0;fontFamily=Architects Daughter;fontSource=https%3A%2F%2Ffonts.googleapis.com%2Fcss%3Ffamily%3DArchitects%2BDaughter;" parent="1" vertex="1">
          <mxGeometry x="730" y="815" width="60" height="30" as="geometry" />
        </mxCell>
        <mxCell id="TelUifXL3P2J1JTy18Ay-3" value="&lt;font style=&quot;font-size: 18px;&quot;&gt;Ceph&lt;/font&gt;" style="text;html=1;align=center;verticalAlign=middle;whiteSpace=wrap;rounded=0;fontFamily=Architects Daughter;fontSource=https%3A%2F%2Ffonts.googleapis.com%2Fcss%3Ffamily%3DArchitects%2BDaughter;" parent="1" vertex="1">
          <mxGeometry x="330" y="815" width="60" height="30" as="geometry" />
        </mxCell>
        <mxCell id="TelUifXL3P2J1JTy18Ay-4" value="&lt;font style=&quot;font-size: 18px;&quot;&gt;VMs&lt;/font&gt;" style="text;html=1;align=center;verticalAlign=middle;whiteSpace=wrap;rounded=0;fontFamily=Architects Daughter;fontSource=https%3A%2F%2Ffonts.googleapis.com%2Fcss%3Ffamily%3DArchitects%2BDaughter;" parent="1" vertex="1">
          <mxGeometry x="530" y="765" width="60" height="30" as="geometry" />
        </mxCell>
        <mxCell id="TelUifXL3P2J1JTy18Ay-5" value="&lt;font style=&quot;font-size: 18px;&quot;&gt;VMs&lt;/font&gt;" style="text;html=1;align=center;verticalAlign=middle;whiteSpace=wrap;rounded=0;fontFamily=Architects Daughter;fontSource=https%3A%2F%2Ffonts.googleapis.com%2Fcss%3Ffamily%3DArchitects%2BDaughter;" parent="1" vertex="1">
          <mxGeometry x="330" y="765" width="60" height="30" as="geometry" />
        </mxCell>
        <mxCell id="TelUifXL3P2J1JTy18Ay-6" value="&lt;font style=&quot;font-size: 18px;&quot;&gt;VMs&lt;/font&gt;" style="text;html=1;align=center;verticalAlign=middle;whiteSpace=wrap;rounded=0;fontFamily=Architects Daughter;fontSource=https%3A%2F%2Ffonts.googleapis.com%2Fcss%3Ffamily%3DArchitects%2BDaughter;" parent="1" vertex="1">
          <mxGeometry x="730" y="765" width="60" height="30" as="geometry" />
        </mxCell>
        <mxCell id="TelUifXL3P2J1JTy18Ay-7" value="&lt;font style=&quot;font-size: 18px;&quot;&gt;Kubernetes&lt;/font&gt;" style="text;html=1;align=center;verticalAlign=middle;whiteSpace=wrap;rounded=0;fontFamily=Architects Daughter;fontSource=https%3A%2F%2Ffonts.googleapis.com%2Fcss%3Ffamily%3DArchitects%2BDaughter;" parent="1" vertex="1">
          <mxGeometry x="530" y="715" width="60" height="30" as="geometry" />
        </mxCell>
        <mxCell id="TelUifXL3P2J1JTy18Ay-8" value="&lt;font style=&quot;font-size: 18px;&quot;&gt;Kubernetes&lt;/font&gt;" style="text;html=1;align=center;verticalAlign=middle;whiteSpace=wrap;rounded=0;fontFamily=Architects Daughter;fontSource=https%3A%2F%2Ffonts.googleapis.com%2Fcss%3Ffamily%3DArchitects%2BDaughter;" parent="1" vertex="1">
          <mxGeometry x="330" y="715" width="60" height="30" as="geometry" />
        </mxCell>
        <mxCell id="TelUifXL3P2J1JTy18Ay-9" value="&lt;font style=&quot;font-size: 18px;&quot;&gt;Kubernetes&lt;/font&gt;" style="text;html=1;align=center;verticalAlign=middle;whiteSpace=wrap;rounded=0;fontFamily=Architects Daughter;fontSource=https%3A%2F%2Ffonts.googleapis.com%2Fcss%3Ffamily%3DArchitects%2BDaughter;" parent="1" vertex="1">
          <mxGeometry x="730" y="715" width="60" height="30" as="geometry" />
        </mxCell>
        <mxCell id="1xIR8QWK2N-v2XUJRnLr-3" value="&lt;span style=&quot;font-size: 14px; caret-color: rgb(80, 82, 85); color: rgb(80, 82, 85); font-family: AktivGrotesk-Corp, Helvetica, sans-serif; text-align: left; -webkit-text-stroke-color: light-dark(rgba(0, 0, 0, 0), rgb(237, 237, 237)); -webkit-text-stroke-width: 1px; background-color: rgb(255, 255, 255);&quot;&gt;1267 Mbps &lt;/span&gt;&lt;span style=&quot;caret-color: rgb(80, 82, 85); color: rgb(80, 82, 85); font-family: AktivGrotesk-Corp, Helvetica, sans-serif; text-align: left; -webkit-text-stroke-color: light-dark(rgba(0, 0, 0, 0), rgb(237, 237, 237)); -webkit-text-stroke-width: 1px; background-color: rgb(255, 255, 255);&quot;&gt;&lt;font style=&quot;font-size: 24px;&quot;&gt;*&lt;/font&gt;&lt;/span&gt;" style="text;html=1;align=center;verticalAlign=middle;whiteSpace=wrap;rounded=0;fontFamily=Architects Daughter;fontSource=https%3A%2F%2Ffonts.googleapis.com%2Fcss%3Ffamily%3DArchitects%2BDaughter;" vertex="1" parent="1">
          <mxGeometry x="670" y="290" width="130" height="30" as="geometry" />
        </mxCell>
        <mxCell id="1xIR8QWK2N-v2XUJRnLr-9" value="" style="edgeStyle=orthogonalEdgeStyle;rounded=0;sketch=1;hachureGap=4;jiggle=2;curveFitting=1;orthogonalLoop=1;jettySize=auto;html=1;entryX=0.5;entryY=0;entryDx=0;entryDy=0;entryPerimeter=0;fontFamily=Architects Daughter;fontSource=https%3A%2F%2Ffonts.googleapis.com%2Fcss%3Ffamily%3DArchitects%2BDaughter;curved=0;shape=link;exitX=0.5;exitY=1;exitDx=0;exitDy=0;exitPerimeter=0;endArrow=none;startFill=0;width=16;" edge="1" parent="1" target="1xIR8QWK2N-v2XUJRnLr-8">
          <mxGeometry relative="1" as="geometry">
            <mxPoint x="559" y="240" as="sourcePoint" />
            <mxPoint x="559" y="430" as="targetPoint" />
          </mxGeometry>
        </mxCell>
        <mxCell id="1xIR8QWK2N-v2XUJRnLr-8" value="&lt;div style=&quot;white-space: nowrap; background-color: rgb(255, 255, 255);&quot;&gt;&lt;span style=&quot;white-space: normal; caret-color: rgb(80, 82, 85); color: rgb(80, 82, 85); font-family: AktivGrotesk-Corp, Helvetica, sans-serif; text-align: left; -webkit-text-stroke-color: rgba(0, 0, 0, 0); -webkit-text-stroke-width: 1px;&quot;&gt;&lt;font style=&quot;font-size: 14px;&quot;&gt;2402&lt;/font&gt;&lt;font style=&quot;font-size: 14px;&quot;&gt;&amp;nbsp;Mbps&amp;nbsp;&lt;/font&gt;&lt;/span&gt;&lt;span style=&quot;caret-color: rgb(80, 82, 85); color: rgb(80, 82, 85); font-family: AktivGrotesk-Corp, Helvetica, sans-serif; text-align: left; -webkit-text-stroke-color: rgba(0, 0, 0, 0); -webkit-text-stroke-width: 1px; white-space: normal;&quot;&gt;&lt;font style=&quot;font-size: 24px;&quot;&gt;*&lt;/font&gt;&lt;/span&gt;&lt;/div&gt;" style="text;html=1;align=center;verticalAlign=middle;whiteSpace=wrap;rounded=0;fontFamily=Architects Daughter;fontSource=https%3A%2F%2Ffonts.googleapis.com%2Fcss%3Ffamily%3DArchitects%2BDaughter;" vertex="1" parent="1">
          <mxGeometry x="495" y="320" width="130" height="30" as="geometry" />
        </mxCell>
        <mxCell id="1xIR8QWK2N-v2XUJRnLr-11" value="&lt;span style=&quot;font-size: 14px; caret-color: rgb(80, 82, 85); color: rgb(80, 82, 85); font-family: AktivGrotesk-Corp, Helvetica, sans-serif; text-align: left; -webkit-text-stroke-color: light-dark(rgba(0, 0, 0, 0), rgb(237, 237, 237)); -webkit-text-stroke-width: 1px; background-color: rgb(255, 255, 255);&quot;&gt;1267 Mbps &lt;/span&gt;&lt;span style=&quot;caret-color: rgb(80, 82, 85); color: rgb(80, 82, 85); font-family: AktivGrotesk-Corp, Helvetica, sans-serif; text-align: left; -webkit-text-stroke-color: light-dark(rgba(0, 0, 0, 0), rgb(237, 237, 237)); -webkit-text-stroke-width: 1px; background-color: rgb(255, 255, 255);&quot;&gt;&lt;font style=&quot;font-size: 24px;&quot;&gt;*&lt;/font&gt;&lt;/span&gt;" style="text;html=1;align=center;verticalAlign=middle;whiteSpace=wrap;rounded=0;fontFamily=Architects Daughter;fontSource=https%3A%2F%2Ffonts.googleapis.com%2Fcss%3Ffamily%3DArchitects%2BDaughter;" vertex="1" parent="1">
          <mxGeometry x="670" y="100" width="130" height="30" as="geometry" />
        </mxCell>
        <mxCell id="1xIR8QWK2N-v2XUJRnLr-13" value="&lt;font style=&quot;font-size: 18px;&quot;&gt;* Claimed&lt;/font&gt;&lt;div&gt;&lt;font style=&quot;font-size: 18px;&quot;&gt;max speed&amp;nbsp;&lt;/font&gt;&lt;/div&gt;" style="text;html=1;align=center;verticalAlign=middle;whiteSpace=wrap;rounded=0;fontFamily=Architects Daughter;fontSource=https%3A%2F%2Ffonts.googleapis.com%2Fcss%3Ffamily%3DArchitects%2BDaughter;" vertex="1" parent="1">
          <mxGeometry x="630" y="340" width="140" height="60" as="geometry" />
        </mxCell>
        <mxCell id="U8OfBwTo37hnceXYN2hP-40" style="edgeStyle=entityRelationEdgeStyle;rounded=0;sketch=1;hachureGap=4;jiggle=2;curveFitting=1;orthogonalLoop=1;jettySize=auto;html=1;fontFamily=Architects Daughter;fontSource=https%3A%2F%2Ffonts.googleapis.com%2Fcss%3Ffamily%3DArchitects%2BDaughter;shape=link;" parent="1" source="U8OfBwTo37hnceXYN2hP-22" target="U8OfBwTo37hnceXYN2hP-33" edge="1">
          <mxGeometry relative="1" as="geometry" />
        </mxCell>
        <mxCell id="U8OfBwTo37hnceXYN2hP-41" style="rounded=0;sketch=1;hachureGap=4;jiggle=2;curveFitting=1;orthogonalLoop=1;jettySize=auto;html=1;entryX=0;entryY=0.5;entryDx=0;entryDy=0;entryPerimeter=0;fontFamily=Architects Daughter;fontSource=https%3A%2F%2Ffonts.googleapis.com%2Fcss%3Ffamily%3DArchitects%2BDaughter;shape=link;edgeStyle=entityRelationEdgeStyle;" parent="1" source="U8OfBwTo37hnceXYN2hP-22" target="U8OfBwTo37hnceXYN2hP-37" edge="1">
          <mxGeometry relative="1" as="geometry" />
        </mxCell>
      </root>
    </mxGraphModel>
  </diagram>
</mxfile>
